<?xml version="1.0" encoding="UTF-8"?>
<svg id="Layer_1" xmlns="http://www.w3.org/2000/svg" version="1.1" viewBox="0 0 16 16">
  <!-- Generator: Adobe Illustrator 29.0.0, SVG Export Plug-In . SVG Version: 2.1.0 Build 186)  -->
  <defs>
    <style>
      .st0, .st1, .st2 {
        stroke-miterlimit: 10;
      }

      .st0, .st2 {
        stroke: #fff;
        stroke-width: .7px;
      }

      .st0, .st3 {
        fill: #70b47e;
      }

      .st1 {
        fill: #fff;
        stroke: #70b47e;
        stroke-width: .5px;
      }

      .st4 {
        fill: #71b57f;
      }

      .st2 {
        fill: none;
      }
    </style>
  </defs>
  <circle class="st4" cx="8" cy="8" r="8"/>
  <circle class="st0" cx="8.1" cy="7.5" r="5.4"/>
  <circle class="st1" cx="3.3" cy="5" r="1"/>
  <circle class="st1" cx="7" cy="2.1" r=".8"/>
  <circle class="st1" cx="13" cy="5.2" r="1.2"/>
  <circle class="st0" cx="8.1" cy="7.4" r="3.7"/>
  <g>
    <path class="st3" d="M8.1,8.9v4.6c0,.1,0,.2-.2.1,0,0-1.4-.5-4-.5v-4.7c0-.1,0-.2.2-.2,0,0,1.9-.1,4,.7Z"/>
    <path class="st2" d="M8.1,8.9v4.6c0,.1,0,.2-.2.1,0,0-1.4-.5-4-.5v-4.7c0-.1,0-.2.2-.2,0,0,1.9-.1,4,.7Z"/>
  </g>
  <g>
    <path class="st3" d="M8.1,8.1v5.2c0,.1,0,.1-.1,0,0,0-1.1-1.3-3-1.3v-4.5c0-.1,0-.2.2-.2,0,0,1.3-.1,2.9.8Z"/>
    <path class="st2" d="M8.1,8.1v5.2c0,.1,0,.1-.1,0,0,0-1.1-1.3-3-1.3v-4.5c0-.1,0-.2.2-.2,0,0,1.3-.1,2.9.8Z"/>
  </g>
  <g>
    <path class="st3" d="M8.1,8.9v4.6c0,.1,0,.2.2.1,0,0,1.4-.5,4-.5v-4.7c0-.1,0-.2-.2-.2,0,0-1.9-.1-4,.7Z"/>
    <path class="st2" d="M8.1,8.9v4.6c0,.1,0,.2.2.1,0,0,1.4-.5,4-.5v-4.7c0-.1,0-.2-.2-.2,0,0-1.9-.1-4,.7Z"/>
  </g>
  <g>
    <path class="st3" d="M8.1,8.1v5.2c0,.1,0,.1.1,0,0,0,1.1-1.3,3-1.3v-4.5c0-.1,0-.2-.2-.2,0,0-1.3-.1-2.9.8Z"/>
    <path class="st2" d="M8.1,8.1v5.2c0,.1,0,.1.1,0,0,0,1.1-1.3,3-1.3v-4.5c0-.1,0-.2-.2-.2,0,0-1.3-.1-2.9.8Z"/>
  </g>
  <circle class="st1" cx="9.6" cy="4.1" r=".8"/>
</svg>